<?xml version="1.0" encoding="UTF-8"?>
<!DOCTYPE svg PUBLIC "-//W3C//DTD SVG 1.1//EN" "http://www.w3.org/Graphics/SVG/1.1/DTD/svg11.dtd">
<!-- Creator: CorelDRAW X7 -->
<svg xmlns="http://www.w3.org/2000/svg" xml:space="preserve" width="11in" height="8.5in" version="1.1" style="shape-rendering:geometricPrecision; text-rendering:geometricPrecision; image-rendering:optimizeQuality; fill-rule:evenodd; clip-rule:evenodd"
viewBox="0 0 11000 8500"
 xmlns:xlink="http://www.w3.org/1999/xlink">
 <defs>
  <style type="text/css">
   <![CDATA[
    .str0 {stroke:white;stroke-width:333.331}
    .fil0 {fill:none}
    .fil1 {fill:white;fill-rule:nonzero}
   ]]>
  </style>
 </defs>
 <g id="Layer_x0020_1">
  <metadata id="CorelCorpID_0Corel-Layer"/>
  <path class="fil0 str0" d="M5511 4005c1889,0 3421,421 3421,941 0,519 -1532,940 -3421,940 -1890,0 -3421,-421 -3421,-940 0,-520 1531,-941 3421,-941z"/>
  <path class="fil0 str0" d="M8043 4320c1020,215 1665,550 1665,906 0,597 -1882,1082 -4204,1082 -2322,0 -4529,-539 -4205,-1082 325,-543 1262,-777 1590,-877"/>
  <path class="fil0 str0" d="M9708 5214c1,142 25,1567 25,1584 -1,404 -2015,876 -4235,876 -2220,0 -4038,-373 -4189,-845 -6,-21 -42,-1473 -42,-1495"/>
  <path class="fil1" d="M2138 2582l122 -47c124,-48 202,-122 234,-221 32,-99 18,-225 -40,-377 -68,-174 -148,-292 -242,-355 -94,-61 -204,-68 -328,-20l-122 47 376 973zm114 1115l-819 -2118 533 -205c158,-62 305,-54 439,24 134,77 239,213 314,408 74,189 89,355 48,496 -42,140 -136,239 -283,296l-296 114 340 879 -276 106zm1291 -1919l134 954c17,119 49,207 97,267 48,59 109,83 182,72 77,-10 127,-52 150,-124 23,-71 24,-186 2,-342l-126 -889 102 -15 140 992c23,164 9,299 -42,402 -52,104 -133,164 -246,180 -134,18 -242,-16 -325,-103 -83,-87 -138,-224 -164,-411l-134 -951 230 -32zm1903 1002c-38,122 -92,218 -161,287 -69,69 -147,105 -235,109 -143,7 -266,-62 -370,-208 -104,-147 -162,-335 -173,-566 -11,-219 29,-406 119,-562 91,-156 208,-237 352,-244 92,-5 173,20 244,74 71,54 126,133 166,239l-84 71c-35,-92 -76,-159 -122,-203 -46,-44 -100,-65 -160,-62 -98,5 -170,66 -217,181 -47,116 -65,282 -54,498 9,197 45,354 105,473 62,119 135,176 222,172 61,-3 115,-32 163,-88 48,-56 87,-137 118,-242l87 71zm487 346l-232 -12 119 -2428 232 12 -83 1695 465 -733 130 7 -389 611 428 881 -290 -15 -346 -714 -34 696zm862 -352l39 -275 652 -362 -38 273 -653 364zm1163 629l-283 -75 576 -2196 283 74 -576 2197zm510 181l643 -1198 -196 -105 61 -113 595 320 -60 113 -196 -105 -643 1198 -204 -110z"/>
  <path class="fil0" d="M5511 3120c1889,0 3421,421 3421,940 0,519 -1532,940 -3421,940 -1890,0 -3421,-421 -3421,-940 0,-519 1531,-940 3421,-940z"/>
 </g>
</svg>
