<?xml version="1.0" encoding="UTF-8"?>
<!DOCTYPE svg PUBLIC "-//W3C//DTD SVG 1.1//EN" "http://www.w3.org/Graphics/SVG/1.1/DTD/svg11.dtd">
<!-- Creator: CorelDRAW X7 -->
<svg xmlns="http://www.w3.org/2000/svg" xml:space="preserve" width="8.79865in" height="7.15367in" version="1.1" style="shape-rendering:geometricPrecision; text-rendering:geometricPrecision; image-rendering:optimizeQuality; fill-rule:evenodd; clip-rule:evenodd"
viewBox="0 0 8799 7154"
 xmlns:xlink="http://www.w3.org/1999/xlink">
 <defs>
  <style type="text/css">
   <![CDATA[
    .str0 {stroke:#373435;stroke-width:333.331}
    .str1 {stroke:#373435;stroke-width:333.331}
    .fil0 {fill:none}
    .fil1 {fill:#373435;fill-rule:nonzero}
   ]]>
  </style>
 </defs>
 <g id="Layer_x0020_1">
  <metadata id="CorelCorpID_0Corel-Layer"/>
  <g id="_2030841567072">
   <path class="fil0 str0" d="M4410 3319c1889,0 3421,421 3421,940 0,520 -1532,941 -3421,941 -1889,0 -3421,-421 -3421,-941 0,-519 1532,-940 3421,-940z"/>
   <path class="fil0 str1" d="M6943 3634c1019,215 1664,549 1664,906 0,597 -1882,1081 -4204,1081 -2322,0 -4529,-538 -4204,-1081 324,-544 1261,-778 1589,-877"/>
   <path class="fil0 str0" d="M8607 4528c1,141 25,1567 25,1584 -1,404 -2014,875 -4235,875 -2220,0 -4038,-373 -4188,-844 -7,-21 -42,-1474 -42,-1495"/>
   <path class="fil1" d="M1037 1896l123 -48c123,-48 201,-121 233,-220 32,-99 19,-225 -40,-377 -68,-175 -148,-293 -242,-355 -94,-62 -203,-69 -328,-21l-122 48 376 973zm115 1115l-819 -2118 532 -206c159,-61 305,-53 439,24 134,78 239,213 315,408 73,190 89,355 47,496 -42,141 -136,239 -283,296l-296 114 340 879 -275 107zm1290 -1920l134 955c17,118 49,207 97,266 49,59 109,83 183,73 76,-11 126,-52 149,-124 23,-72 24,-186 2,-343l-125 -889 101 -14 140 991c23,165 9,299 -42,403 -52,104 -133,163 -246,179 -134,19 -242,-15 -325,-102 -83,-88 -137,-224 -164,-412l-134 -950 230 -33zm1904 1003c-39,122 -93,217 -161,286 -69,69 -148,106 -236,110 -142,7 -266,-63 -370,-209 -104,-146 -162,-334 -173,-565 -11,-220 29,-407 119,-563 91,-155 208,-237 352,-244 93,-4 174,20 244,74 71,54 126,134 166,240l-83 71c-36,-92 -76,-160 -123,-204 -46,-43 -99,-64 -159,-61 -99,5 -171,65 -218,181 -47,115 -65,281 -54,497 10,197 45,355 106,474 61,119 135,176 221,172 61,-3 116,-33 163,-89 48,-56 87,-137 119,-242l87 72zm486 345l-232 -11 120 -2428 231 11 -83 1696 466 -733 130 6 -390 611 428 881 -290 -14 -346 -714 -34 695zm862 -352l39 -274 652 -363 -38 273 -653 364zm1164 629l-284 -74 576 -2197 283 75 -575 2196zm509 182l643 -1198 -196 -105 61 -114 596 320 -61 114 -196 -106 -643 1199 -204 -110z"/>
   <path class="fil0" d="M4410 2433c1889,0 3421,421 3421,941 0,519 -1532,940 -3421,940 -1889,0 -3421,-421 -3421,-940 0,-520 1532,-941 3421,-941z"/>
  </g>
 </g>
</svg>
