<?xml version="1.0" encoding="UTF-8"?>
<!DOCTYPE svg PUBLIC "-//W3C//DTD SVG 1.1//EN" "http://www.w3.org/Graphics/SVG/1.1/DTD/svg11.dtd">
<!-- Creator: CorelDRAW X7 -->
<svg xmlns="http://www.w3.org/2000/svg" xml:space="preserve" width="8.79865in" height="4.00153in" version="1.1" style="shape-rendering:geometricPrecision; text-rendering:geometricPrecision; image-rendering:optimizeQuality; fill-rule:evenodd; clip-rule:evenodd"
viewBox="0 0 8799 4002"
 xmlns:xlink="http://www.w3.org/1999/xlink">
 <defs>
  <style type="text/css">
   <![CDATA[
    .str0 {stroke:black;stroke-width:333.331}
    .fil0 {fill:none}
   ]]>
  </style>
 </defs>
 <g id="Layer_x0020_1">
  <metadata id="CorelCorpID_0Corel-Layer"/>
  <path class="fil0 str0" d="M4410 167c1889,0 3421,421 3421,940 0,519 -1532,940 -3421,940 -1889,0 -3421,-421 -3421,-940 0,-519 1532,-940 3421,-940z"/>
  <path class="fil0 str0" d="M6943 482c1019,215 1664,549 1664,905 0,598 -1882,1082 -4204,1082 -2322,0 -4529,-538 -4204,-1082 324,-543 1261,-777 1589,-876"/>
  <path class="fil0 str0" d="M8607 1376c1,141 25,1567 25,1584 -1,404 -2014,875 -4235,875 -2220,0 -4038,-373 -4188,-845 -7,-20 -42,-1473 -42,-1494"/>
 </g>
</svg>
