<?xml version="1.0" encoding="UTF-8"?>
<!DOCTYPE svg PUBLIC "-//W3C//DTD SVG 1.1//EN" "http://www.w3.org/Graphics/SVG/1.1/DTD/svg11.dtd">
<!-- Creator: CorelDRAW X7 -->
<svg xmlns="http://www.w3.org/2000/svg" xml:space="preserve" width="11in" height="8.5in" version="1.1" style="shape-rendering:geometricPrecision; text-rendering:geometricPrecision; image-rendering:optimizeQuality; fill-rule:evenodd; clip-rule:evenodd"
viewBox="0 0 11000 8500"
 xmlns:xlink="http://www.w3.org/1999/xlink">
 <defs>
  <style type="text/css">
   <![CDATA[
    .str0 {stroke:#373435;stroke-width:111.11}
    .str1 {stroke:#373435;stroke-width:111.11}
    .fil0 {fill:white;fill-rule:nonzero}
   ]]>
  </style>
 </defs>
 <g id="Layer_x0020_1">
  <metadata id="CorelCorpID_0Corel-Layer"/>
  <path class="fil0 str0" d="M9874 5213c1,85 10,673 17,1107 4,263 8,470 8,478 -1,296 -590,581 -1494,768 -784,162 -1823,274 -2907,274 -1115,0 -2133,-94 -2895,-247 -815,-165 -1357,-415 -1452,-714 -8,-24 -16,-222 -22,-471 -13,-447 -28,-1062 -28,-1074l333 0c0,17 15,638 27,1065 6,222 4,370 7,380 55,175 504,348 1200,488 738,149 1732,240 2830,240 1065,0 2079,-109 2841,-266 743,-154 1227,-321 1228,-443 0,-4 -4,-210 -8,-472 -7,-433 -16,-1019 -17,-1110l332 -3z"/>
  <path class="fil0 str0" d="M8077 4158c531,112 967,257 1271,422 338,184 527,404 527,646 0,384 -519,710 -1357,926 -775,199 -1841,322 -3014,322 -1245,0 -2460,-154 -3281,-381 -336,-93 -609,-199 -796,-314 -235,-144 -352,-313 -321,-502 7,-46 24,-92 51,-136 331,-555 1189,-806 1594,-924 37,-11 70,-21 90,-27l96 318c-34,10 -62,19 -93,28 -365,106 -1137,332 -1402,775 -5,8 -7,14 -8,19 -7,40 54,97 166,166 161,98 406,192 712,277 792,219 1974,368 3192,368 1148,0 2185,-119 2932,-311 683,-176 1105,-391 1105,-604 0,-110 -126,-231 -352,-354 -275,-150 -679,-283 -1180,-389l68 -325z"/>
  <path class="fil0 str0" d="M5511 3839c958,0 1829,107 2462,282 695,191 1125,481 1125,825 0,344 -430,634 -1125,825 -633,174 -1504,282 -2462,282 -958,0 -1829,-108 -2463,-282 -695,-191 -1125,-481 -1125,-825 0,-344 430,-634 1125,-825 634,-175 1505,-282 2463,-282zm2375 602c-604,-166 -1444,-269 -2375,-269 -932,0 -1771,103 -2376,269 -543,149 -879,329 -879,505 0,175 336,355 879,504 605,167 1444,269 2376,269 931,0 1771,-102 2375,-269 543,-149 879,-329 879,-504 0,-176 -336,-356 -879,-505z"/>
  <path class="fil0 str1" d="M2138 2582l122 -47c124,-48 202,-122 234,-221 32,-99 18,-225 -40,-377 -68,-174 -148,-292 -242,-355 -94,-61 -204,-68 -328,-20l-122 47 376 973zm114 1115l-819 -2118 533 -205c158,-62 305,-54 439,24 134,77 239,213 314,408 74,189 89,355 48,496 -42,140 -136,239 -283,296l-296 114 340 879 -276 106zm1291 -1919l134 954c17,119 49,207 97,267 48,59 109,83 182,72 77,-10 127,-52 150,-124 23,-71 24,-186 2,-342l-126 -889 102 -15 140 992c23,164 9,299 -42,402 -52,104 -133,164 -246,180 -134,18 -242,-16 -325,-103 -83,-87 -138,-224 -164,-411l-134 -951 230 -32zm1903 1002c-38,122 -92,218 -161,287 -69,69 -147,105 -235,109 -143,7 -266,-62 -370,-208 -104,-147 -162,-335 -173,-566 -11,-219 29,-406 119,-562 91,-156 208,-237 352,-244 92,-5 173,20 244,74 71,54 126,133 166,239l-84 71c-35,-92 -76,-159 -122,-203 -46,-44 -100,-65 -160,-62 -98,5 -170,66 -217,181 -47,116 -65,282 -54,498 9,197 45,354 105,473 62,119 135,176 222,172 61,-3 115,-32 163,-88 48,-56 87,-137 118,-242l87 71zm487 346l-232 -12 119 -2428 232 12 -83 1695 465 -733 130 7 -389 611 428 881 -290 -15 -346 -714 -34 696zm862 -352l39 -275 652 -362 -38 273 -653 364zm1163 629l-283 -75 576 -2196 283 74 -576 2197zm510 181l643 -1198 -196 -105 61 -113 595 320 -60 113 -196 -105 -643 1198 -204 -110z"/>
 </g>
</svg>
